2014015_C4_04_grf
version=1
nRows=12
nColumns=19
inDegrees=no
endheader
time	ground_force_1_vx	ground_force_1_vy	ground_force_1_vz	ground_force_1_px	ground_force_1_py	ground_force_1_pz	ground_force_1_mx	ground_force_1_my	ground_force_1_mz	ground_force_2_vx	ground_force_2_vy	ground_force_2_vz	ground_force_2_px	ground_force_2_py	ground_force_2_pz	ground_force_2_mx	ground_force_2_my	ground_force_2_mz
      0.47500000	     -9.09518683	    596.87191248	     18.25895626	      0.15665196	     -0.00200000	     -0.27488142	     -0.00000000	     -2.53280101	     -0.00000000	      0.00000000	      0.00000000	      0.00000000	      0.00000000	      0.00000000	      0.00000000	      0.00000000	      0.00000000	      0.00000000
      0.47600000	     -8.66880454	    597.51987457	     18.24541949	      0.15680213	     -0.00200000	     -0.27481310	      0.00000000	     -2.55325706	      0.00000000	      0.00000000	      0.00000000	      0.00000000	      0.00000000	      0.00000000	      0.00000000	      0.00000000	      0.00000000	      0.00000000
      0.47700000	     -8.23576842	    598.18914533	     18.22365895	      0.15695008	     -0.00200000	     -0.27474171	     -0.00000000	     -2.57462850	      0.00000000	      0.00000000	      0.00000000	      0.00000000	      0.00000000	      0.00000000	      0.00000000	      0.00000000	      0.00000000	      0.00000000
      0.47800000	     -7.79739628	    598.87593985	     18.19549799	      0.15709621	     -0.00200000	     -0.27466794	      0.00000000	     -2.59672380	      0.00000000	      0.00000000	      0.00000000	      0.00000000	      0.00000000	      0.00000000	      0.00000000	      0.00000000	      0.00000000	      0.00000000
      0.47900000	     -7.35236797	    599.58514571	     18.15960556	      0.15724003	     -0.00200000	     -0.27459127	      0.00000000	     -2.61971024	     -0.00000000	      0.00000000	      0.00000000	      0.00000000	      0.00000000	      0.00000000	      0.00000000	      0.00000000	      0.00000000	      0.00000000
      0.48000000	     -6.90204743	    600.31282902	     18.11777316	      0.15738198	     -0.00200000	     -0.27451236	      0.00000000	     -2.64339555	      0.00000000	      0.00000000	      0.00000000	      0.00000000	      0.00000000	      0.00000000	      0.00000000	      0.00000000	      0.00000000	      0.00000000
      0.48100000	     -6.44518342	    601.06408596	     18.06885749	      0.15752158	     -0.00200000	     -0.27443078	      0.00000000	     -2.66793259	      0.00000000	      0.00000000	      0.00000000	      0.00000000	      0.00000000	      0.00000000	      0.00000000	      0.00000000	      0.00000000	      0.00000000
      0.48200000	     -5.98316267	    601.83459520	     18.01456288	      0.15765927	     -0.00200000	     -0.27434718	      0.00000000	     -2.69313034	      0.00000000	      0.00000000	      0.00000000	      0.00000000	      0.00000000	      0.00000000	      0.00000000	      0.00000000	      0.00000000	      0.00000000
      0.48300000	     -5.51481685	    602.62945294	     17.95391925	      0.15779455	     -0.00200000	     -0.27426121	      0.00000000	     -2.71912471	      0.00000000	      0.00000000	      0.00000000	      0.00000000	      0.00000000	      0.00000000	      0.00000000	      0.00000000	      0.00000000	      0.00000000
      0.48400000	     -5.04152430	    603.44409943	     17.88850240	      0.15792790	     -0.00200000	     -0.27417346	      0.00000000	     -2.74572947	      0.00000000	      0.00000000	      0.00000000	      0.00000000	      0.00000000	      0.00000000	      0.00000000	      0.00000000	      0.00000000	      0.00000000
      0.48500000	     -4.56220703	    604.28366065	     17.81751662	      0.15805881	     -0.00200000	     -0.27408364	      0.00000000	     -2.77305927	      0.00000000	      0.00000000	      0.00000000	      0.00000000	      0.00000000	      0.00000000	      0.00000000	      0.00000000	      0.00000000	      0.00000000
      0.48600000	     -4.07820288	    605.14336824	     17.74240695	      0.15818776	     -0.00200000	     -0.27399230	     -0.00000000	     -2.80093473	     -0.00000000	      0.00000000	      0.00000000	      0.00000000	      0.00000000	      0.00000000	      0.00000000	      0.00000000	      0.00000000	      0.00000000
